<?xml version="1.0" encoding="UTF-8" standalone="no"?>
<!DOCTYPE svg PUBLIC "-//W3C//DTD SVG 1.1//EN" "http://www.w3.org/Graphics/SVG/1.1/DTD/svg11.dtd">
<svg width="100%" height="100%" viewBox="0 0 100 100" version="1.1" xmlns="http://www.w3.org/2000/svg" xmlns:xlink="http://www.w3.org/1999/xlink" xml:space="preserve" xmlns:serif="http://www.serif.com/" style="fill-rule:evenodd;clip-rule:evenodd;stroke-linejoin:round;stroke-miterlimit:2;">
    <g transform="matrix(0.00334225,-1.22684e-17,3.67063e-16,-0.00334448,-0.26738,100)">
        <path d="M80,29900L80,0L30000,0L30000,29900L80,29900ZM25790,20360L25790,10058L25763,10064C25683,10081 24874,10205 24460,10264C20436,10839 16402,11042 12340,10875C10073,10781 7754,10564 5510,10234C5138,10180 4460,10075 4408,10064L4380,10058L4380,20360L25790,20360Z" style="fill:rgb(145,70,255);fill-rule:nonzero;"/>
    </g>
    <g transform="matrix(0.00334225,-1.22684e-17,3.67063e-16,-0.00334448,-0.26738,100)">
        <path d="M5020,15270C5020,11435 5022,10810 5034,10810C5042,10810 5167,10828 5312,10849C7485,11175 9896,11406 12155,11505C13067,11544 13653,11559 14660,11566C17965,11591 21308,11363 24585,10889C24855,10850 25094,10816 25118,10813L25160,10807L25160,19730L5020,19730L5020,15270ZM11620,18019C12120,17973 12524,17813 12922,17502C12976,17460 13020,17423 13020,17420C13020,17416 12590,16894 12427,16701L12399,16668L12342,16714C12251,16788 12055,16917 11967,16961C11862,17014 11679,17074 11560,17095C11413,17120 11166,17126 11045,17106C10581,17029 10186,16677 10031,16202C9973,16026 9965,15965 9965,15720C9966,15526 9969,15481 9988,15393C10068,15024 10263,14725 10545,14538C10783,14379 11008,14316 11325,14317C11642,14319 11910,14388 12143,14527L12220,14574L12220,15210L11230,15210L11232,15638L11235,16065L12208,16068L13180,16070L13180,14121L13107,14062C13005,13978 12805,13844 12675,13771C12160,13485 11525,13360 10940,13430C10590,13472 10229,13597 9943,13773C9301,14171 8920,14892 8920,15710C8920,16597 9390,17381 10158,17774C10588,17993 11052,18071 11620,18019ZM7758,15723L7760,13490L6770,13490L6770,17960L7263,17958L7755,17955L7758,15723ZM16490,17937C16924,17867 17229,17755 17537,17550C18038,17218 18355,16720 18462,16100C18494,15919 18494,15541 18462,15360C18382,14896 18195,14516 17889,14196C17714,14013 17516,13869 17275,13750C17105,13666 16980,13620 16806,13575C16483,13493 16430,13490 15324,13490L14370,13490L14370,17961L15378,17957C16260,17954 16398,17951 16490,17937ZM21905,17950C22596,17887 23051,17538 23145,17001C23175,16831 23159,16586 23108,16430C23039,16218 22886,16025 22676,15885C22592,15829 22588,15826 22611,15816C22783,15745 22953,15647 23068,15551C23202,15439 23326,15240 23370,15067C23443,14777 23414,14428 23298,14195C23115,13829 22755,13610 22185,13517C22058,13496 22023,13496 20833,13493L19610,13489L19610,17960L20703,17960C21357,17960 21839,17956 21905,17950Z" style="fill:rgb(145,70,255);fill-rule:nonzero;"/>
    </g>
    <g transform="matrix(0.00334225,-1.22684e-17,3.67063e-16,-0.00334448,-0.26738,100)">
        <path d="M15360,17060L15360,14378L15823,14383C16187,14386 16304,14391 16375,14403C16810,14481 17135,14714 17315,15078C17407,15263 17440,15413 17447,15670C17451,15838 17449,15882 17432,15985C17333,16563 16931,16958 16355,17045C16278,17056 16154,17060 15808,17060L15360,17060Z" style="fill:rgb(145,70,255);fill-rule:nonzero;"/>
    </g>
    <g transform="matrix(0.00334225,-1.22684e-17,3.67063e-16,-0.00334448,-0.26738,100)">
        <path d="M20570,17090L20570,16159L21143,16162C21699,16166 21717,16166 21795,16188C21967,16236 22080,16315 22133,16424C22171,16501 22186,16612 22171,16703C22137,16913 21989,17035 21721,17075C21647,17087 21507,17090 21098,17090L20570,17090Z" style="fill:rgb(145,70,255);fill-rule:nonzero;"/>
    </g>
    <g transform="matrix(0.00334225,-1.22684e-17,3.67063e-16,-0.00334448,-0.26738,100)">
        <path d="M20570,15331L20570,14360L21213,14360C21722,14360 21875,14363 21950,14375C22114,14400 22212,14442 22301,14527C22398,14620 22440,14756 22420,14914C22393,15126 22253,15249 21970,15311C21932,15319 21712,15324 21243,15327L20570,15331Z" style="fill:rgb(145,70,255);fill-rule:nonzero;"/>
    </g>
</svg>
